<?xml version="1.0" encoding="UTF-8"?>
<!-- Generator: Adobe Illustrator 28.1.0, SVG Export Plug-In . SVG Version: 6.00 Build 0)  -->
<svg xmlns="http://www.w3.org/2000/svg" xmlns:xlink="http://www.w3.org/1999/xlink" version="1.1" id="Layer_1" x="0px" y="0px" viewBox="0 0 834.7 342.3" style="enable-background:new 0 0 834.7 342.3;" xml:space="preserve">
<style type="text/css">
	.st0{fill:#3CAA49;}
	.st1{fill:#E42F26;}
	.st2{fill:#8E9095;}
</style>
<g>
	<path class="st0" d="M451.9,286.1L607.4,54c18.4-27.5,44-50.3,59.9-54h-51.9c-32.9,0-59.3,24.2-79.3,54L380.6,286.1   c-18.4,27.5-44,50.3-59.9,54h51.9C405.5,340.1,431.9,315.9,451.9,286.1 M535.6,286.1L691.2,54c18.4-27.5,44-50.3,59.9-54h-51.9   c-32.9,0-59.3,24.2-79.3,54L464.3,286.1c-18.4,27.5-44,50.3-59.9,54h51.9C489.2,340.1,515.7,315.9,535.6,286.1 M782.9,0   c-32.9,0-59.3,24.2-79.3,54L548.1,286.1c-18.4,27.5-44,50.3-59.9,54h51.9c32.9,0,59.3-24.2,79.3-54L774.9,54   c18.4-27.5,44-50.3,59.9-54H782.9z"></path>
	<path class="st1" d="M333.9,0h-86.6c15.9,3.7,41.4,26.5,59.9,54l108.3,161.6l53-79.1L413.2,54C393.2,24.2,366.8,0,333.9,0 M452.4,0   h-86.6c15.9,3.7,41.4,26.5,59.9,54l49,73.2l52.9-79C508.2,21.1,483.1,0,452.4,0"></path>
	<path class="st2" d="M63.9,158.4l-7.2-7.2l-7.2,7.2l7.2,7.2L63.9,158.4z M80.1,237.9c8.1,5,17.7,6.4,26.2,3.5   c11.4-3.9,16.7-13.7,16.7-25.8h101.7v-40.8l-14.9,14.7l-0.7,0.8c2-0.5,4.5,0.3,4.5,3.4l0,12.8h-8.3v-27.4l-15.6,15.5   c2-0.5,4.5-0.2,4.5,2.9l0,9h-8.3v-22.3l-15.6,15.4c2-0.5,4.5-0.5,4.5,2.6v4.3h-52.8c-0.5-2.1-1-4.2-1.8-6.3   c-3.1-9-10.2-17.4-16.1-21.5c0,0,3.2,13-3.9,19.3c0,0,0,0,0.1,0.1c6.6,3.8,11,10.7,11,18.5c0,12-10.3,21.8-22.9,21.8   c-0.1,0-0.2,0-0.3,0C85.3,238.4,82.7,238.3,80.1,237.9 M269.8,241.1l7.2-7.2l-7.2-7.2l-7.2,7.2L269.8,241.1z M236.2,151.5l0,64.1   h53.7v-30.2l-15.6,15.4c2-0.5,4.5-0.5,4.5,2.6v3.2h-31.4v-73.1l-15.7,15.4C233.6,148.5,236.2,148.4,236.2,151.5 M248.3,233.9   l7.2,7.2l7.2-7.2l-7.2-7.2L248.3,233.9z M192.3,281.6c-1.8-0.4-3.4-0.6-5-0.6c-5.8,0-10.2,2.9-13.8,9.1l-0.9-9.3   c-4.9,0.9-9.3,1.3-13.3,1.3H158c3,2.7,4.1,6.1,4.1,11v36.1c0,4.9-1.1,8.2-4.2,10.9h19.5c-3-2.7-4.1-6-4.1-10.9l0-21.6   c0-10.8,4.6-16.6,12.9-16.6c2.3,0,4.1,0.6,6,1.9V281.6z M222.6,279.8c-17.7,0-30.6,12.9-30.6,31.4c0,18,14,30.9,33.1,30.9   c5.5,0,11.4-1.3,18-3.8l6.4-11.2c-7.7,4-14.5,6.2-21,6.2c-13.6,0-23.1-8.9-23.7-23.7l44.7,0C249.4,291,238.8,279.8,222.6,279.8    M205.8,301.6c1.1-8.7,7.2-13.9,16.1-13.9c8,0,14.4,5.6,14.9,13.9H205.8z M86.9,168c-1.5,1.3-3.9,2.2-5.9,2.2h-7.9c0,0,0,0,0,0   c-4.8,0-8.7,3.9-8.7,8.7c0,0.3,0,0.6,0,0.8c-4.2,0.6-7.5,4.3-7.5,8.7v15.3h18.7v2.9H20.3c-3-3.4,0-9.9,0-9.9L0,215.6l86.9,0V168z    M75.7,193.7h-8.3c0,0-0.1-0.4-0.1-2.3c0-3.6,3.3-4.5,3.3-4.5s-0.7-1.6,0.1-3.8c1-2.7,5-2.7,5-2.7V193.7z M49.3,325.4v-22.5   l28.3-45.5H58.4c2.3,1.8,3.5,3.7,3.5,5.6c0,1.7-1,4.1-2.7,6.9l-14.5,23.4l-21.5-36H5c4.5,3.5,8,7.5,11.1,12.4l20.2,32.8v22.8   c0,6.2-0.4,10.6-4.9,14.6h22.8C49.7,336.1,49.3,331.7,49.3,325.4 M268.7,274.8c0-8.2,1.9-11.7,8.3-11.7c1.5,0,3.5,0.2,6.2,0.9   l6.7-8.5c-2.3-0.2-4.6-0.4-6.7-0.4c-17.4,0-25.8,7.9-25.8,24.4c0,0.9,0.1,1.8,0.1,2.8l-6.6,8.4l6.6,0l0,38.6   c0,4.9-1.1,8.2-4.1,10.8l19.5,0c-3-2.7-4.1-6-4.1-10.9l0-38.6h14.6v-8.4h-14.6V274.8z M141.7,306.2c-11-4.6-18.2-5.2-18.2-11.3   c0-4.1,3.7-7.1,9.9-7.1c5.1,0,10.9,1.5,17.1,4.6v-10.4c-6.2-1.3-11.6-2-16-2c-14.4,0-22.7,6.7-22.7,16.7c0,7.4,4.8,12.3,14.6,16.4   c11.1,4.6,17.9,6.2,17.9,12.3c0,3.1-1.7,5.8-6.1,7.7c-6.6,2.6-14.8,0.8-19.1-0.7c-8.7-3.1-10.2-9.9-10.5-14.3c0-0.3,0-0.6,0-0.9   v-14c0-8.8-0.7-14.6-6.7-19c-3.8-2.8-8.6-4.2-14.5-4.2c-2.8,0-6.3,0.2-10.7,0.9l-7.8,12.4c6.2-3.1,11.3-4.5,15.5-4.5   c8.3,0,13.2,3.4,13.2,8.3c0,4.4-3.9,6-13.4,8.2c-8.8,2.1-15.4,2.9-19.7,7.3c-2.7,2.8-4.1,6.5-4.2,10.5c0,10.2,8.3,18.2,20.4,18.2   c2.4,0,4.9-0.4,7.6-1l6.6-8.9c-3.4,0.9-6.3,1.3-8.7,1.3c-8.3,0-13.4-4.3-13.4-10.1c0-7.6,8.1-9.3,25-13.9v13.1   c0,5.3,1.9,11,8.4,14.9c5.7,3.4,13.9,5.4,22.6,5.4c17.8,0,28-8.6,28-19.8C156.7,315.5,151.8,310.5,141.7,306.2"></path>
</g>
</svg>
